<?xml version="1.0" encoding="UTF-8"?>
<!DOCTYPE svg PUBLIC "-//W3C//DTD SVG 1.1//EN" "http://www.w3.org/Graphics/SVG/1.1/DTD/svg11.dtd">
<svg xmlns="http://www.w3.org/2000/svg" version="1.1" width="50px" height="50px" style="shape-rendering:geometricPrecision; text-rendering:geometricPrecision; image-rendering:optimizeQuality; fill-rule:evenodd; clip-rule:evenodd" xmlns:xlink="http://www.w3.org/1999/xlink">
<g><path style="opacity:0.873" fill="#e45502" d="M 21.5,3.5 C 28.6152,2.47025 33.2819,5.30358 35.5,12C 34.7819,15.4605 34.2819,18.9605 34,22.5C 32.6474,24.8802 31.4808,27.3802 30.5,30C 30.7804,31.395 31.4471,32.5617 32.5,33.5C 37.0507,34.6904 40.884,37.0237 44,40.5C 44.49,41.7932 44.6567,43.1266 44.5,44.5C 31.8333,44.5 19.1667,44.5 6.5,44.5C 6.26928,41.2155 7.60261,38.7155 10.5,37C 20.56,35.3942 22.7267,30.5609 17,22.5C 16.3333,17.5 16.3333,12.5 17,7.5C 18.3968,5.92975 19.8968,4.59641 21.5,3.5 Z"/></g>
</svg>
